# xmcd
#
# Track frame offsets: 
#        150
#        18057
#        33386
#        53665
#        75595
#        95501
#        114915
#        130953
#        153042
#        172272
#        192419
#        218094
#        237317
#        256966
#        278502
#        293249
#        312233
#
# Disc length: 4388 seconds
#
# Revision: 0
# Processed by: cddbd v1.4PL0 Copyright (c) Steve Scherf et al.
# Submitted via: ExactAudioCopy v0.95a3
#
DISCID=df112211
DTITLE=Various Artist - LOVE情歌集（国语篇）
DYEAR=2002
DGENRE=Other
TTITLE0=庾澄庆-命中注定
TTITLE1=陈奕迅-十年
TTITLE2=彭佳慧-别问我是谁
TTITLE3=那英-离不开
TTITLE4=小刚-记事本
TTITLE5=林宸希-不再问
TTITLE6=阿杜-他一定很爱你
TTITLE7=张智成-凌晨三点钟
TTITLE8=戴佩妮-街角的祝福
TTITLE9=萧亚轩-最熟悉的陌生人
TTITLE10=刘若英-后来
TTITLE11=孙燕姿-爱情证书
TTITLE12=王力宏-唯一
TTITLE13=周杰伦-开不了口
TTITLE14=黄品源-小薇
TTITLE15=张敬轩-MY WAY
TTITLE16=纪如憬-值得一辈子去爱
EXTD=
EXTT0=
EXTT1=
EXTT2=
EXTT3=
EXTT4=
EXTT5=
EXTT6=
EXTT7=
EXTT8=
EXTT9=
EXTT10=
EXTT11=
EXTT12=
EXTT13=
EXTT14=
EXTT15=
EXTT16=
PLAYORDER=
